<?xml version="1.0" standalone="no"?>
<!DOCTYPE svg PUBLIC "-//W3C//DTD SVG 20010904//EN"
 "http://www.w3.org/TR/2001/REC-SVG-20010904/DTD/svg10.dtd">
<svg version="1.0" xmlns="http://www.w3.org/2000/svg"
 width="176.000000pt" height="176.000000pt" viewBox="0 0 176.000000 176.000000"
 preserveAspectRatio="xMidYMid meet">
<metadata>
Created by potrace 1.14, written by Peter Selinger 2001-2017
</metadata>
<g transform="translate(0.000000,176.000000) scale(0.100000,-0.100000)"
fill="#000000" stroke="none">
<path d="M900 1685 c-70 -9 -94 -17 -133 -43 -26 -18 -55 -41 -65 -51 -9 -10
-35 -24 -57 -31 -156 -49 -327 -198 -403 -350 -61 -122 -77 -192 -77 -335 0
-97 5 -134 24 -195 27 -88 61 -158 107 -221 l34 -47 -63 -23 c-83 -30 -128
-54 -119 -64 4 -5 2 -5 -5 -1 -19 10 -67 -19 -106 -65 l-35 -41 -1 -108 -1
-109 860 0 861 -1 -11 20 c-6 11 -16 17 -22 14 -6 -4 -8 -3 -5 3 4 6 -10 25
-31 43 -20 17 -47 40 -58 51 -12 10 -27 19 -33 19 -6 0 -11 5 -11 10 0 6 -10
10 -22 10 -17 0 -19 3 -10 9 10 6 -1 16 -38 34 -29 15 -57 24 -63 20 -6 -3 -7
-1 -3 5 8 14 -69 72 -97 72 -16 0 -17 2 -7 15 7 9 10 18 6 22 -3 3 -6 1 -6 -5
0 -8 -7 -9 -24 -2 -13 5 -27 6 -32 2 -4 -4 -4 -1 0 5 4 7 2 13 -4 13 -23 0
-158 135 -153 152 2 5 -1 8 -5 8 -14 0 -5 60 12 79 20 22 116 208 116 224 -1
7 -15 -16 -33 -50 -53 -101 -125 -170 -187 -178 -18 -3 -41 -7 -51 -10 -10 -4
-19 -2 -19 4 0 5 -12 4 -27 -5 -16 -7 -34 -14 -41 -14 -7 0 -15 -6 -18 -14 -3
-8 -17 -22 -31 -31 -17 -12 -23 -13 -17 -4 6 12 5 12 -9 0 -9 -7 -30 -11 -47
-9 -16 3 -30 1 -30 -4 0 -4 -11 -2 -25 4 -14 6 -25 15 -25 19 0 4 -9 11 -20
14 -11 3 -20 14 -20 23 0 19 -21 80 -34 100 -4 7 -15 11 -23 8 -8 -3 -11 -1
-8 4 3 6 1 10 -4 10 -6 0 -11 7 -11 15 0 8 -4 15 -9 15 -5 0 -12 8 -15 18 -3
9 -3 -1 0 -23 3 -22 9 -44 13 -50 22 -28 18 -72 -13 -129 -17 -32 -34 -57 -37
-55 -4 2 -17 -5 -30 -16 l-24 -20 19 22 c10 13 23 20 29 16 5 -3 -10 18 -33
48 -138 173 -159 410 -54 609 41 79 96 144 158 188 45 33 46 33 46 10 1 -20 2
-21 11 -5 5 9 7 23 3 30 -4 6 -4 9 1 5 11 -10 30 12 43 52 13 37 68 100 88
100 6 0 14 -14 18 -31 5 -26 9 -29 20 -20 17 14 100 -4 91 -19 -4 -6 15 -10
44 -10 28 0 51 5 51 10 0 6 10 10 23 10 12 0 41 7 65 15 23 8 54 12 67 9 33
-8 87 -65 115 -121 12 -27 32 -58 43 -71 12 -13 22 -39 23 -65 2 -23 1 -36 -2
-29 -3 6 -10 12 -16 12 -6 0 -5 -7 3 -16 11 -14 14 -13 29 6 l17 22 22 -30
c58 -82 91 -198 91 -319 0 -145 -50 -269 -151 -378 -34 -36 -56 -65 -50 -65 6
0 11 4 11 9 0 5 9 11 20 14 25 6 77 -53 57 -65 -9 -6 -9 -8 0 -8 6 0 15 5 18
10 3 6 12 10 18 10 7 0 6 -4 -3 -10 -10 -6 -11 -10 -2 -10 6 0 12 -4 12 -9 0
-5 -7 -8 -16 -7 -11 0 -18 -8 -20 -24 -3 -20 9 -11 69 50 201 208 254 521 132
787 -43 94 -79 145 -154 218 -33 32 -61 65 -61 72 0 25 -54 99 -99 136 -97 79
-177 99 -321 82z m-268 -1216 c29 -29 47 -49 41 -45 -9 5 -11 2 -6 -10 5 -13
14 -15 47 -9 23 3 64 9 91 11 28 3 57 7 65 11 8 3 17 7 20 8 54 21 70 28 70
34 0 4 11 13 24 19 13 6 40 25 60 42 34 30 53 25 22 -6 -8 -7 -16 -17 -18 -21
-6 -15 -124 -110 -183 -149 -33 -21 -61 -42 -63 -46 -2 -5 -12 -8 -23 -8 -10
0 -19 -4 -19 -10 0 -5 -6 -10 -14 -10 -8 0 -16 -6 -19 -14 -6 -15 -57 -10 -57
6 0 5 -5 6 -12 2 -7 -5 -8 -3 -2 7 12 20 14 39 3 39 -6 0 -9 8 -7 18 2 11 -3
17 -14 16 -10 -1 -15 2 -13 7 3 4 -1 11 -8 16 -12 7 -27 32 -58 95 -5 10 -9
39 -9 65 l1 48 14 -32 c7 -17 37 -55 67 -84z m705 28 c0 -7 -9 -14 -20 -14
-19 -2 -19 -2 -1 12 11 8 19 15 20 15 0 0 1 -6 1 -13z m-623 -78 c-3 -5 -10
-7 -15 -3 -5 3 -7 10 -3 15 3 5 10 7 15 3 5 -3 7 -10 3 -15z m-601 -206 c-7
-2 -19 -2 -25 0 -7 3 -2 5 12 5 14 0 19 -2 13 -5z m1344 1 c-3 -3 -12 -4 -19
-1 -8 3 -5 6 6 6 11 1 17 -2 13 -5z"/>
<path d="M625 380 c3 -5 8 -10 11 -10 2 0 4 5 4 10 0 6 -5 10 -11 10 -5 0 -7
-4 -4 -10z"/>
<path d="M1260 1286 c0 -2 8 -10 18 -17 15 -13 16 -12 3 4 -13 16 -21 21 -21
13z"/>
<path d="M606 1189 c-33 -26 -25 -39 25 -39 21 0 39 -5 39 -11 0 -5 4 -8 8 -5
4 2 14 0 22 -5 10 -6 -1 -8 -35 -4 -27 3 -56 2 -63 -3 -16 -11 -5 -42 17 -43
12 0 11 -2 -4 -8 -13 -5 2 -8 40 -7 33 1 63 5 67 11 4 6 16 0 29 -14 18 -19
19 -25 8 -32 -11 -7 -11 -9 3 -9 9 0 18 -3 21 -7 2 -5 2 -2 1 5 -2 6 1 12 6
12 6 0 10 13 10 28 0 21 -13 42 -46 75 -25 26 -52 47 -59 47 -7 0 -18 7 -25
15 -17 20 -32 19 -64 -6z m64 -105 c0 -8 -4 -12 -10 -9 -5 3 -10 10 -10 16 0
5 5 9 10 9 6 0 10 -7 10 -16z"/>
<path d="M541 1184 c0 -11 3 -14 6 -6 3 7 2 16 -1 19 -3 4 -6 -2 -5 -13z"/>
<path d="M980 1107 c-19 -6 -42 -19 -51 -29 -10 -11 -23 -16 -33 -12 -9 3 -16
1 -16 -4 0 -6 9 -14 20 -17 11 -3 20 -14 20 -22 0 -9 3 -13 7 -10 3 4 12 2 20
-5 11 -8 12 -7 7 6 -9 24 24 20 45 -5 15 -19 20 -20 41 -9 19 10 24 10 32 -4
9 -16 39 -22 51 -10 12 12 -6 34 -23 29 -10 -3 -21 -1 -25 4 -3 7 0 8 10 5 10
-4 14 -2 10 8 -3 7 -15 14 -25 15 -11 1 -18 -2 -15 -7 3 -5 -10 -3 -28 5 -19
8 -38 11 -43 7 -5 -4 -3 0 4 9 18 24 83 31 131 14 39 -13 41 -13 32 4 -6 10
-16 22 -23 28 -17 14 -103 14 -148 0z"/>
<path d="M1316 1021 c-3 -5 1 -11 9 -15 9 -3 15 0 15 9 0 16 -16 20 -24 6z"/>
<path d="M706 874 c-9 -24 -7 -31 4 -14 8 13 10 13 10 -1 0 -9 15 -24 33 -34
27 -14 38 -15 55 -6 26 14 45 14 37 1 -3 -6 1 -7 9 -4 32 12 3 26 -41 19 -40
-6 -46 -4 -72 24 -24 25 -30 28 -35 15z"/>
<path d="M678 772 c-14 -2 -29 -11 -33 -20 -3 -9 -3 -13 1 -9 4 4 19 -3 32
-15 14 -13 22 -17 18 -10 -8 14 20 17 28 3 3 -5 16 -11 28 -14 13 -3 39 -10
58 -16 l35 -10 -44 39 c-25 21 -47 38 -50 37 -3 -1 -15 3 -26 9 -11 5 -32 8
-47 6z"/>
</g>
</svg>
